<svg xmlns="http://www.w3.org/2000/svg" viewBox="20 14 203.33 100.16">
  <defs>
    <style>
      .a {
        fill: #333;
      }

      .b {
        fill: #4ba847;
      }
    </style>
  </defs>
  <title>food</title>
  <g>
    <path class="b" d="M122.2,66c-.2,0-.5,0-.6-.2s-10.3-9.3-10.3-20.4,9.8-20.1,10.3-20.5a1,1,0,0,1,1.3,0c.4.4,10.3,9.3,10.3,20.5s-9.9,20-10.3,20.4A.8.8,0,0,1,122.2,66Zm0-39c-2.2,2.2-8.9,9.7-8.9,18.4s6.7,16.1,8.9,18.3c2.2-2.2,9-9.7,9-18.3S124.4,29.2,122.2,27Z"/>
    <g>
      <path class="b" d="M119.6,105.5h-.2c-.5-.1-13.4-2.6-21.2-10.5a26.4,26.4,0,0,1-7.3-18.8.8.8,0,0,1,.4-.7,1.1,1.1,0,0,1,.8-.2c.5.1,13.4,2.6,21.1,10.5a27,27,0,0,1,7.4,18.8,1,1,0,0,1-.4.7A.7.7,0,0,1,119.6,105.5Zm-26.7-28a24.9,24.9,0,0,0,6.7,16.1c6.1,6.1,15.6,8.9,19,9.7a24.6,24.6,0,0,0-6.8-16.1C105.8,81.1,96.2,78.4,92.9,77.5Z"/>
      <path class="b" d="M124.8,105.5a.7.7,0,0,1-.6-.2,1.6,1.6,0,0,1-.4-.7,27,27,0,0,1,7.4-18.8c7.8-7.9,20.6-10.4,21.2-10.5a1.2,1.2,0,0,1,.8.2,1.6,1.6,0,0,1,.4.7A26.7,26.7,0,0,1,146.2,95c-7.8,7.9-20.6,10.4-21.2,10.5Zm26.8-28c-3.4.9-13,3.6-19,9.7a24.9,24.9,0,0,0-6.7,16.1c3.3-.8,12.9-3.6,18.9-9.7A25.8,25.8,0,0,0,151.6,77.5Z"/>
    </g>
    <g>
      <path class="b" d="M119.6,81.9h-.2c-.5-.1-13.4-2.6-21.2-10.5a26.6,26.6,0,0,1-7.3-18.8.8.8,0,0,1,.4-.7.8.8,0,0,1,.8-.2c.5.1,13.4,2.6,21.1,10.5A26.7,26.7,0,0,1,120.6,81a1.3,1.3,0,0,1-.4.7Zm-26.7-28A24.9,24.9,0,0,0,99.6,70c6.1,6.1,15.6,8.8,19,9.6a24.6,24.6,0,0,0-6.8-16C105.8,57.5,96.2,54.7,92.9,53.9Z"/>
      <path class="b" d="M124.8,81.9l-.6-.2a2.5,2.5,0,0,1-.4-.7,26.7,26.7,0,0,1,7.4-18.8c7.8-7.9,20.6-10.4,21.2-10.5a.8.8,0,0,1,.8.2,1.6,1.6,0,0,1,.4.7,27,27,0,0,1-7.4,18.8c-7.8,7.9-20.6,10.4-21.2,10.5Zm26.8-28c-3.4.8-13,3.6-19,9.7a24.9,24.9,0,0,0-6.7,16c3.3-.8,12.9-3.5,18.9-9.6S151.4,56.7,151.6,53.9Z"/>
    </g>
  </g>
</svg>
