<svg xmlns="http://www.w3.org/2000/svg" viewBox="20 14 203.33 100.16">
  <defs>
    <style>
      .a {
        fill: #4ba847;
      }

      .b {
        fill: #333;
      }
    </style>
  </defs>
  <title>shopping</title>
  <path class="a" d="M151.2,87.7H100.8l3.9-5.8a1.4,1.4,0,0,0,.2-.6l-.4-3.4,46.2-2.2a1,1,0,0,0,.8-.9l1.4-24.6a.9.9,0,0,0-.8-.9l-51.5-7-.8-6.6a.8.8,0,0,0-.5-.8l-6.9-2.4a.7.7,0,0,0-1,.6,1,1,0,0,0,.4,1l6.4,2.2,4.9,44.9L98.5,88a.8.8,0,0,0,.2,1.2l.5.2h7.3a4.6,4.6,0,0,0-1.7,6.4,4.7,4.7,0,1,0,8.1-4.7,4.6,4.6,0,0,0-1.7-1.7h30.1a4.7,4.7,0,1,0,6.5,1.7,4.9,4.9,0,0,0-1.8-1.7h5.2a1,1,0,0,0,1-.7.9.9,0,0,0-.7-1.1ZM100.8,44.1,151.1,51l-1.3,23-45.5,2.1Zm8,52.3a3,3,0,0,1-3-3,2.9,2.9,0,0,1,3-3,3,3,0,0,1,3,3,3.1,3.1,0,0,1-3,3Zm34.8,0a3.1,3.1,0,0,1-3-3,3,3,0,0,1,3-3,2.9,2.9,0,0,1,3,3,3.1,3.1,0,0,1-2.9,3Z"/>
</svg>
