<svg xmlns="http://www.w3.org/2000/svg" viewBox="20 14 203.33 100.16">
  <defs>
    <style>
      .a {
        fill: #4ba847;
      }

      .b {
        fill: #333;
      }
    </style>
  </defs>
  <title>take-action</title>
  <path class="a" d="M104.9,107a.9.9,0,0,1-1-.9v-.3a45.8,45.8,0,0,0,1.5-10.4c-4.4-1.6-6.1-8.1-7.6-13.8-.3-1-.5-1.8-.7-2.7a27.3,27.3,0,0,1-.9-9c0-3.2,0-6.1-1.1-9.2-.4-1.1-.9-2.5-1.6-4-2.4-5.9-5.7-13.9-2-17a3.4,3.4,0,0,1,3-1c1.7.4,2.8,2.3,4.1,5.4a36.6,36.6,0,0,1,1.3,4.4c.8,3.5,1.9,8,3.9,9.2.1-1.7-.7-5.9-1.4-9.1-1.7-9.1-3.8-19.4,1.3-21.3a3.7,3.7,0,0,1,3.4.2c2.4,1.6,2.7,6.1,2.9,9.1a7.6,7.6,0,0,0,.1,1.6,83.3,83.3,0,0,0,2.2,13.1,123.2,123.2,0,0,0,1-15c0-1.7.1-3.5.2-5.2.3-4.1,1.2-6.8,2.7-8a3.9,3.9,0,0,1,5.2.4c2.3,2.8,1.7,9.1,1.1,15.9-.4,4.7-1,10.4.1,12.6,2-3.1,3-8.7,4-13.3a49,49,0,0,1,1-5,3.1,3.1,0,0,1,.2-.8c.4-2,1-5.5,3.3-6.5a4.3,4.3,0,0,1,4,.5c4.7,2.8.8,18.4,0,21.4s-.8,4-1.1,6a56.3,56.3,0,0,1-1.4,6.9v1c-.2,2.8-.5,5.8.9,7.9,1.4-.4,3.7-2,5.9-3.7,4.4-3.3,9.4-7,12.9-4.3a4.7,4.7,0,0,1,2.1,3.9,5.9,5.9,0,0,1-2.9,4.5c-8.7,5.6-11.8,11.9-14.2,16.9s-3.4,7-6.9,7.9c-.1.6,0,2.8.8,10.6a1.1,1.1,0,0,1-.9,1.1H104.9Zm-11-66.3a2.4,2.4,0,0,0-1.1.6c-2.6,2.2.6,10,2.5,14.6A41.2,41.2,0,0,1,96.9,60c1.3,3.4,1.3,6.7,1.3,10a29.9,29.9,0,0,0,.7,8.4c.3.8.5,1.8.8,2.7,1.3,5.2,3,11.6,6.8,12.6a1.2,1.2,0,0,1,.7.7l.2.7v.2a52.5,52.5,0,0,1-1.2,9.7H129c-.9-9-.8-10.2-.4-10.7a1.1,1.1,0,0,1,.8-.8c2.9-.5,4.1-3.1,6-7s5.7-11.8,14.9-17.7a3.7,3.7,0,0,0,1.9-2.9,2.7,2.7,0,0,0-1.4-2.3c-2.2-1.7-6.6,1.5-10.4,4.3s-5.5,4.2-7.5,4.2a1.2,1.2,0,0,1-.8-.4c-2.4-2.7-2-6.5-1.7-9.8v-1h0c.6-2.3,1-4.5,1.4-6.8a33.9,33.9,0,0,1,1.2-6.2c2.2-8.3,3.2-17.8,1-19.2a2.9,2.9,0,0,0-2.2-.4c-1.3.6-1.9,3.6-2.2,5.1a5.1,5.1,0,0,0-.2.9,46.7,46.7,0,0,0-1,4.9c-1,5.4-2.3,12-5.1,15.2a1,1,0,0,1-1.3.2c-2.8-1.9-2.3-8.1-1.6-15.3s1.1-12.2-.6-14.3a1.8,1.8,0,0,0-1.3-.6,1.6,1.6,0,0,0-1.2.2c-1,.9-1.7,3.3-2,6.7-.1,1.7-.1,3.4-.2,5.2-.1,6.4-.3,13-1.7,19.4a1,1,0,0,1-1.1.8,1,1,0,0,1-.8-.7,73.4,73.4,0,0,1-3.5-17.5c0-.4-.1-1-.1-1.6-.2-2.3-.4-6.6-2-7.6a2.2,2.2,0,0,0-1.6,0c-3.5,1.3-1.4,12,0,19s1.9,10.1.7,11.4a1,1,0,0,1-.9.4c-3.8-.5-5.2-6.3-6.3-11-.3-1.3-.7-2.7-1.1-4.1s-1.7-4-2.7-4.2h-.2Z"/>
  <g>
    <path class="b" d="M43.8,129.6V153H40.1V129.6h-9v-3.5H52.8v3.5Z"/>
    <path class="b" d="M50.1,148.1a4.6,4.6,0,0,1,.4-2.1,5.2,5.2,0,0,1,1.2-1.7,5.6,5.6,0,0,1,1.7-1.1,7.9,7.9,0,0,1,2.2-.6l5-.7a2.3,2.3,0,0,0,1.1-.5,1.6,1.6,0,0,0,.3-.9,3,3,0,0,0-1-2.3,4.1,4.1,0,0,0-3-1,4,4,0,0,0-2.9,1.1,4.2,4.2,0,0,0-1.2,2.6l-3.4-.8a5.3,5.3,0,0,1,2.4-4.2,6.1,6.1,0,0,1,2.2-1.3,9,9,0,0,1,2.8-.4,8.8,8.8,0,0,1,3.5.6,5.4,5.4,0,0,1,3.7,3.5,7.8,7.8,0,0,1,.4,2.6V150c0,.9.1,1.5.1,2a5.6,5.6,0,0,0,.2,1H62.3a6.4,6.4,0,0,1-.2-.9v-1.5l-.8,1a4,4,0,0,1-1.2,1l-1.7.7a7.8,7.8,0,0,1-2.2.3,6.6,6.6,0,0,1-2.5-.4,6.7,6.7,0,0,1-2-1.2,5.7,5.7,0,0,1-1.2-1.8A4.6,4.6,0,0,1,50.1,148.1Zm6.6,2.5,2.1-.3a4.2,4.2,0,0,0,1.6-.9,4.3,4.3,0,0,0,1.2-1.7,8.2,8.2,0,0,0,.4-2.5v-.8l-5.6.8a3.1,3.1,0,0,0-1.9.9,2.3,2.3,0,0,0-.8,1.9,2.7,2.7,0,0,0,.8,1.8A3.3,3.3,0,0,0,56.7,150.6Z"/>
    <path class="b" d="M77.9,142.5,85.8,153H81.4l-6-8-2.6,2.5V153H69.3V125.5h3.5v17.4l7.9-8.1h5Z"/>
    <path class="b" d="M102.4,147.8a6.1,6.1,0,0,1-1.1,2.3,7.7,7.7,0,0,1-1.8,1.8,10.5,10.5,0,0,1-2.3,1.3,9.5,9.5,0,0,1-3,.4,10.7,10.7,0,0,1-3.5-.6,9.7,9.7,0,0,1-2.9-1.9,9.2,9.2,0,0,1-2-3.1,10.7,10.7,0,0,1-.8-4.1,10.2,10.2,0,0,1,.8-4,7.7,7.7,0,0,1,1.9-3,8,8,0,0,1,2.8-2,7.2,7.2,0,0,1,3.3-.7,8.7,8.7,0,0,1,3.7.7,8,8,0,0,1,2.8,2,8.7,8.7,0,0,1,1.7,3,12.3,12.3,0,0,1,.6,3.9c0,.2-.1.4-.1.6v.5H88.7a5.9,5.9,0,0,0,.5,2.3,6.2,6.2,0,0,0,1.1,1.7,5.7,5.7,0,0,0,1.8,1.2,7.8,7.8,0,0,0,2.1.4,5.2,5.2,0,0,0,3.5-1.1,7.8,7.8,0,0,0,1.7-2.6ZM98.8,142a4.9,4.9,0,0,0-1.3-3.3,4.8,4.8,0,0,0-3.7-1.3,4.5,4.5,0,0,0-2,.4,4,4,0,0,0-1.5,1,4.4,4.4,0,0,0-1,1.5,5.5,5.5,0,0,0-.5,1.7Z"/>
    <path class="b" d="M129.2,145.5h-12l-2.8,7.5h-4l10.7-26.9h4.3L136.1,153h-4Zm-10.6-3.4h9.2L123.2,130Z"/>
    <path class="b" d="M145,137.5a5.2,5.2,0,0,0-2.1.4,6.6,6.6,0,0,0-1.7,1.2,7.7,7.7,0,0,0-1.3,2,7.9,7.9,0,0,0-.4,2.8,7.7,7.7,0,0,0,.4,2.7,10.7,10.7,0,0,0,1.3,2.1,6.6,6.6,0,0,0,1.7,1.2,5.4,5.4,0,0,0,2.2.4,5.1,5.1,0,0,0,2.2-.4,2.8,2.8,0,0,0,1.4-.9,6.4,6.4,0,0,0,1-1.3l.5-1.1,3.1,1.3a6.2,6.2,0,0,1-1,2,9.5,9.5,0,0,1-1.6,1.9,8.4,8.4,0,0,1-2.5,1.3,9.6,9.6,0,0,1-3.1.5,8.7,8.7,0,0,1-3.7-.7,7.8,7.8,0,0,1-2.9-2.1,9.8,9.8,0,0,1-2-3.1,11.2,11.2,0,0,1-.7-3.8,12.3,12.3,0,0,1,.7-3.9,11,11,0,0,1,2-3.1,10,10,0,0,1,2.9-2,8.6,8.6,0,0,1,3.6-.7,9.8,9.8,0,0,1,3.2.5,6.9,6.9,0,0,1,2.4,1.4,5.8,5.8,0,0,1,1.7,1.8,9.5,9.5,0,0,1,.9,2.1l-3.3,1.4a7.8,7.8,0,0,0-.5-1.4,3.4,3.4,0,0,0-.9-1.2,4.2,4.2,0,0,0-1.4-.9A4.6,4.6,0,0,0,145,137.5Z"/>
    <path class="b" d="M160.5,134.8h4V138h-4v9.5a2.7,2.7,0,0,0,.6,1.9,2.7,2.7,0,0,0,2,.6h1.4v3l-.9.2H162a5.1,5.1,0,0,1-3.7-1.3,5.3,5.3,0,0,1-1.4-3.9V138h-3.5v-3.2h1a2.9,2.9,0,0,0,2.2-.8,3.4,3.4,0,0,0,.6-2v-3h3.3Z"/>
    <path class="b" d="M166.6,127.9a2.6,2.6,0,0,1,.8-1.9,2.7,2.7,0,0,1,3.6,0,2.6,2.6,0,0,1,.8,1.9,2.5,2.5,0,0,1-.8,1.8,2.7,2.7,0,0,1-3.6,0A2.5,2.5,0,0,1,166.6,127.9Zm.8,25.1V134.8H171V153Z"/>
    <path class="b" d="M183.1,134.2a9,9,0,0,1,3.7.7,8.1,8.1,0,0,1,3,2.1,8.5,8.5,0,0,1,1.9,3,11.2,11.2,0,0,1,0,7.8,7.7,7.7,0,0,1-1.9,3,8.1,8.1,0,0,1-3,2.1,9,9,0,0,1-3.7.7,9.5,9.5,0,0,1-3.8-.7,8.6,8.6,0,0,1-2.9-2.1,7.9,7.9,0,0,1-2-3,11.2,11.2,0,0,1,0-7.8,8.8,8.8,0,0,1,2-3,8.6,8.6,0,0,1,2.9-2.1A9.5,9.5,0,0,1,183.1,134.2Zm0,16.2a4.9,4.9,0,0,0,2.1-.4,7.6,7.6,0,0,0,1.9-1.2,7.2,7.2,0,0,0,1.2-2.1,8.1,8.1,0,0,0,0-5.6,5.6,5.6,0,0,0-1.2-2,5.9,5.9,0,0,0-1.9-1.3,4.9,4.9,0,0,0-2.1-.4,5.4,5.4,0,0,0-2.2.4,4.6,4.6,0,0,0-1.8,1.3,5.8,5.8,0,0,0-1.3,2,10,10,0,0,0,0,5.6,7.4,7.4,0,0,0,1.3,2.1,5.7,5.7,0,0,0,1.8,1.2A5.4,5.4,0,0,0,183.1,150.4Z"/>
    <path class="b" d="M198.8,153h-3.6V134.8h3.5v2.6a5.7,5.7,0,0,1,2.5-2.4,7.1,7.1,0,0,1,3.1-.8,6.5,6.5,0,0,1,2.9.6,6.2,6.2,0,0,1,2,1.5,6.5,6.5,0,0,1,1.3,2.3,12.7,12.7,0,0,1,.4,2.9V153h-3.6V142.1a9,9,0,0,0-.2-1.8,5.2,5.2,0,0,0-.7-1.5,5,5,0,0,0-1.4-1,5.6,5.6,0,0,0-2-.3,3.4,3.4,0,0,0-1.8.4,3,3,0,0,0-1.4,1.1,5.3,5.3,0,0,0-.8,1.5,13.6,13.6,0,0,0-.2,2Z"/>
  </g>
</svg>
