<svg xmlns="http://www.w3.org/2000/svg" viewBox="20 14 203.33 100.16">
  <defs>
    <style>
      .a {
        fill: #4ba847;
      }

      .b {
        fill: #333;
      }
    </style>
  </defs>
  <title>travel</title>
  <path class="a" d="M107.8,103.1a1,1,0,0,1-1-1c-.1-.1,0-.1,0-.2l5.6-30.7a26.2,26.2,0,0,0-2.8,0H91.7a1.7,1.7,0,0,0-1.7.9c-1.7,2.4-3.5,5-5.6,7.7l-1.5,1.4-.6.6a1,1,0,0,1-1.2.1l-.5-.2a1.1,1.1,0,0,1-.6-1c.3-1.7.5-3.4.8-5A71,71,0,0,0,82,64.4a68.5,68.5,0,0,0-1.2-11c-.3-1.6-.5-3.3-.7-5a1,1,0,0,1,.4-1l.5-.3a1.1,1.1,0,0,1,1.2.1l.6.5a6.7,6.7,0,0,1,1.5,1.4l3,4,3,4a1.6,1.6,0,0,0,.8.6h21.4l-5.7-30.6a.8.8,0,0,1,.2-.8,1.1,1.1,0,0,1,.8-.3c3,0,4.3,1.9,5.3,3.3,6.5,9.1,12.8,18,19,27a3.2,3.2,0,0,0,2.9,1.5c5.4,0,11.8,0,18.2.4a30.6,30.6,0,0,1,7.3,1.5,5,5,0,0,1,3.7,4.9c0,1.4-.7,3.4-3.7,4.7s-8.1,1.7-12.2,1.8H148c-4.3.1-8.8.1-13.4,0a2.5,2.5,0,0,0-2.3,1.2c-5.1,7.4-10.4,14.8-15.4,22.1L113,99.9a6.5,6.5,0,0,1-5.2,3.2Zm1.8-33.9c1.2-.1,2.4,0,3.6,0h.5a.9.9,0,0,1,.9,1.1h0L109,100.8a4.7,4.7,0,0,0,2.3-2.1l4-5.5c5-7.3,10.3-14.7,15.4-22a4.1,4.1,0,0,1,4-2h13.6c4-.1,7.9-.2,11.5-1.7,1.6-.7,2.4-1.7,2.4-2.9a2.8,2.8,0,0,0-2.3-3,31.6,31.6,0,0,0-6.8-1.4c-6.4-.4-12.7-.4-18.1-.4a4.9,4.9,0,0,1-4.5-2.4l-19-27a5.6,5.6,0,0,0-2.5-2.3l5.6,30.2a.9.9,0,0,1-.7,1.1h-.2l-.7.2H91a3.5,3.5,0,0,1-2.4-1.4l-3-4-2.9-4-.5-.5c.2,1.1.4,2.2.5,3.2A63.2,63.2,0,0,1,84,64.4a73.5,73.5,0,0,1-1.2,11.5,30.6,30.6,0,0,0-.5,3.2l.5-.6,5.6-7.6a3.6,3.6,0,0,1,3.2-1.8h18Z"/>
  
</svg>
